<?xml version="1.0" encoding="UTF-8" standalone="no"?>
<svg id="Layer_1"
    data-name="Layer 1"
    xmlns="http://www.w3.org/2000/svg"
    viewBox="0 0 512 512">
    <title>Month</title>
    <path d="M42.667,213.333v192a64.049,64.049,0,0,0,64,64H405.333a64.049,64.049,0,0,0,64-64v-192Zm106.666,192A21.333,21.333,0,1,1,170.667,384,21.334,21.334,0,0,1,149.333,405.333Zm0-85.333a21.334,21.334,0,1,1,21.334-21.333A21.334,21.334,0,0,1,149.333,320ZM256,405.333A21.333,21.333,0,1,1,277.333,384,21.334,21.334,0,0,1,256,405.333ZM256,320a21.334,21.334,0,1,1,21.333-21.333A21.334,21.334,0,0,1,256,320Zm106.667,85.333A21.333,21.333,0,1,1,384,384,21.334,21.334,0,0,1,362.667,405.333Zm0-85.333A21.334,21.334,0,1,1,384,298.667,21.334,21.334,0,0,1,362.667,320Z" />
    <path d="M405.333,53.333V64a64,64,0,0,1-128,0V53.333H234.667V64a64,64,0,0,1-128,0V53.333a64.05,64.05,0,0,0-64,64v53.334H469.333V117.333A64.05,64.05,0,0,0,405.333,53.333Z" />
    <path d="M362.667,42.667V64A21.334,21.334,0,0,1,320,64V42.667a21.334,21.334,0,1,1,42.667,0Z" />
    <path d="M192,42.667V64a21.334,21.334,0,0,1-42.667,0V42.667a21.334,21.334,0,1,1,42.667,0Z" />
</svg>