<?xml version="1.0" encoding="UTF-8" standalone="no"?>
<svg id="Layer_1"
    data-name="Layer 1"
    xmlns="http://www.w3.org/2000/svg"
    viewBox="0 0 25 25">
    <title>Shopping Cart</title>
    <path
        id="Shopping_Cart"
        d="M24.71,5.49a1.24,1.24,0,0,0-1-.47L6.4,5,5.63,1.93A1.25,1.25,0,0,0,4.42,1H0V2H4.42a.25.25,0,0,1,.24.18L8.37,17.07A1.25,1.25,0,0,0,9.58,18h12a1.23,1.23,0,0,0,1.22-1L25,6.55A1.24,1.24,0,0,0,24.71,5.49ZM13,21a2,2,0,1,1-2-2A2,2,0,0,1,13,21Zm9,0a2,2,0,1,1-2-2A2,2,0,0,1,22,21Z"
        fill="#FFFFFF" />
</svg>