<svg enable-background="new 0 0 480 480"
    height="512"
    viewBox="0 0 480 480"
    width="512"
    xmlns="http://www.w3.org/2000/svg">
    <g id="Layer_3_x2C__pallet_x2C__delivery_x2C__box_x2C__logistics">
        <g>
            <g>
                <path
                    d="m100 480h-40c-5.523 0-10-4.478-10-10v-40c0-5.522 4.477-10 10-10s10 4.478 10 10v30h20v-30c0-5.522 4.477-10 10-10s10 4.478 10 10v40c0 5.522-4.477 10-10 10z"
                    id="id_101"
                    style="fill: rgb(247, 247, 247);"></path>
            </g>
            <g>
                <path
                    d="m420 480h-40c-5.523 0-10-4.478-10-10v-40c0-5.522 4.477-10 10-10s10 4.478 10 10v30h20v-30c0-5.522 4.477-10 10-10s10 4.478 10 10v40c0 5.522-4.477 10-10 10z"
                    id="id_102"
                    style="fill: rgb(255, 255, 255);"></path>
            </g>
            <g>
                <path
                    d="m220 360c-5.523 0-10-4.478-10-10v-160h-160v160c0 5.522-4.477 10-10 10s-10-4.478-10-10v-170c0-5.523 4.477-10 10-10h180c5.523 0 10 4.477 10 10v170c0 5.522-4.477 10-10 10z"
                    id="id_103"
                    style="fill: rgb(255, 255, 255);"></path>
            </g>
            <g>
                <path
                    d="m170 260c-1.528 0-3.06-.35-4.472-1.056l-35.528-17.763-35.528 17.764c-3.1 1.551-6.781 1.384-9.729-.438-2.949-1.822-4.743-5.041-4.743-8.507v-70c0-5.523 4.477-10 10-10s10 4.477 10 10v53.82l25.528-12.764c2.815-1.407 6.129-1.407 8.944 0l25.528 12.764v-53.82c0-5.523 4.477-10 10-10s10 4.477 10 10v70c0 3.466-1.794 6.685-4.743 8.507-1.606.992-3.429 1.493-5.257 1.493z"
                    id="id_104"
                    style="fill: rgb(255, 255, 255);"></path>
            </g>
            <g>
                <path
                    d="m440 360c-5.523 0-10-4.478-10-10v-160h-160v160c0 5.522-4.477 10-10 10s-10-4.478-10-10v-170c0-5.523 4.477-10 10-10h180c5.523 0 10 4.477 10 10v170c0 5.522-4.477 10-10 10z"
                    id="id_105"
                    style="fill: rgb(255, 255, 255);"></path>
            </g>
            <g>
                <path
                    d="m470 440h-460c-5.523 0-10-4.478-10-10v-80c0-5.522 4.477-10 10-10h460c5.523 0 10 4.478 10 10v80c0 5.522-4.477 10-10 10zm-450-20h440v-60h-440z"
                    id="id_106"
                    style="fill: rgb(255, 255, 255);"></path>
            </g>
            <g>
                <path
                    d="m470 400h-460c-5.523 0-10-4.478-10-10s4.477-10 10-10h460c5.523 0 10 4.478 10 10s-4.477 10-10 10z"
                    id="id_107"
                    style="fill: rgb(255, 255, 255);"></path>
            </g>
            <g>
                <path
                    d="m390 260c-1.528 0-3.06-.35-4.472-1.056l-35.528-17.763-35.528 17.764c-3.099 1.551-6.781 1.384-9.729-.438-2.949-1.822-4.743-5.041-4.743-8.507v-70c0-5.523 4.477-10 10-10s10 4.477 10 10v53.82l25.528-12.764c2.815-1.407 6.129-1.407 8.944 0l25.528 12.764v-53.82c0-5.523 4.477-10 10-10s10 4.477 10 10v70c0 3.466-1.794 6.685-4.743 8.507-1.606.992-3.429 1.493-5.257 1.493z"
                    id="id_108"
                    style="fill: rgb(255, 255, 255);"></path>
            </g>
            <g>
                <g>
                    <path
                        d="m330 190h-180c-5.523 0-10-4.477-10-10v-170c0-5.523 4.477-10 10-10h180c5.523 0 10 4.477 10 10v170c0 5.523-4.477 10-10 10zm-170-20h160v-150h-160z"
                        id="id_109"
                        style="fill: rgb(255, 255, 255);"></path>
                </g>
                <g>
                    <path
                        d="m280 90c-1.528 0-3.06-.35-4.472-1.056l-35.528-17.764-35.528 17.764c-3.1 1.55-6.781 1.384-9.729-.438-2.949-1.821-4.743-5.04-4.743-8.506v-70c0-5.523 4.477-10 10-10s10 4.477 10 10v53.82l25.528-12.764c2.815-1.407 6.129-1.407 8.944 0l25.528 12.764v-53.82c0-5.523 4.477-10 10-10s10 4.477 10 10v70c0 3.466-1.794 6.685-4.743 8.506-1.606.993-3.429 1.494-5.257 1.494z"
                        id="id_110"
                        style="fill: rgb(255, 255, 255);"></path>
                </g>
            </g>
        </g>
    </g>
</svg>