<svg id="Layer_1"
    data-name="Layer 1"
    xmlns="http://www.w3.org/2000/svg"
    viewBox="0 0 48 48">
    <rect
        x="12"
        y="23"
        width="2"
        height="2"
        id="id_101"
        style="fill: rgb(255, 255, 255);"></rect>
    <path
        d="M31,8a1,1,0,0,0,1,1h6.224a4.944,4.944,0,0,0-.689-.878L31.879,2.464A5.034,5.034,0,0,0,31,1.775Z"
        id="id_102"
        style="fill: rgb(250, 250, 250);"></path>
    <rect
        x="12"
        y="15"
        width="2"
        height="2"
        id="id_103"
        style="fill: rgb(255, 255, 255);"></rect>
    <path
        d="M38.94,11H32a3.009,3.009,0,0,1-3-3V1.06c-.22-.02-.43-.06-.66-.06H10A5,5,0,0,0,5,6V38a5,5,0,0,0,5,5H22.6A11.925,11.925,0,0,1,21,37a11.8,11.8,0,0,1,.69-4H19a1,1,0,0,1,0-2h3.6A12,12,0,0,1,33,25H19a1,1,0,0,1,0-2H33a1,1,0,0,1,0,2,11.925,11.925,0,0,1,6,1.6V11.66C39,11.43,38.96,11.22,38.94,11ZM16,33a2.006,2.006,0,0,1-2,2H12a2.006,2.006,0,0,1-2-2V31a2.006,2.006,0,0,1,2-2h2a2.006,2.006,0,0,1,2,2Zm0-8a2.006,2.006,0,0,1-2,2H12a2.006,2.006,0,0,1-2-2V23a2.006,2.006,0,0,1,2-2h2a2.006,2.006,0,0,1,2,2Zm0-8a2.006,2.006,0,0,1-2,2H12a2.006,2.006,0,0,1-2-2V15a2.006,2.006,0,0,1,2-2h2a2.006,2.006,0,0,1,2,2ZM11,9a1,1,0,0,1,0-2H23a1,1,0,0,1,0,2Zm22,8H19a1,1,0,0,1,0-2H33a1,1,0,0,1,0,2Z"
        id="id_104"
        style="fill: rgb(255, 255, 255);"></path>
    <rect
        x="12"
        y="31"
        width="2"
        height="2"
        id="id_105"
        style="fill: rgb(255, 255, 255);"></rect>
    <path
        d="M33,27A10,10,0,1,0,43,37,10,10,0,0,0,33,27Zm1.423,14.126a3.381,3.381,0,0,1-.423.151V42a1,1,0,0,1-2,0v-.666a4.462,4.462,0,0,1-1.611-.794,1,1,0,0,1,1.222-1.583,1.79,1.79,0,0,0,1.93.375.743.743,0,0,0,.459-.51c0-.289-.22-.456-1.022-.778-.146-.059-.281-.113-.4-.168-.074-.035-.165-.07-.265-.11-.752-.3-2.314-.922-2.314-2.65a2.669,2.669,0,0,1,1.576-2.3,3.349,3.349,0,0,1,.424-.17V32a1,1,0,0,1,2,0V32.6a4.479,4.479,0,0,1,1.611.8,1,1,0,1,1-1.222,1.583,1.785,1.785,0,0,0-1.931-.375.743.743,0,0,0-.458.51c0,.314.355.513,1.055.792.137.055.261.1.365.154s.192.082.3.126c.739.3,2.277.914,2.277,2.634A2.668,2.668,0,0,1,34.423,41.126Z"
        id="id_106"
        style="fill: rgb(255, 255, 255);"></path>
</svg>