<?xml version="1.0" encoding="UTF-8" standalone="no"?>
<svg width="64"
    height="64"
    viewBox="0 0 64 64"
    fill="none"
    xmlns="http://www.w3.org/2000/svg">
    <path
        d="M50.77 5.21988H14.45C14.3901 5.21447 14.3299 5.21447 14.27 5.21988C11.9532 5.40096 9.78962 6.44841 8.21059 8.15347C6.63156 9.85852 5.75299 12.096 5.75 14.4199V42.0199C5.75265 43.918 6.50785 45.7377 7.85004 47.0798C9.19222 48.422 11.0119 49.1772 12.91 49.1799H21.71V57.4999C21.71 57.732 21.7746 57.9596 21.8967 58.157C22.0187 58.3545 22.1934 58.5141 22.401 58.6179C22.6086 58.7217 22.8411 58.7657 23.0723 58.7448C23.3035 58.724 23.5243 58.6392 23.71 58.4999L31.47 52.6799L39.23 58.4999C39.445 58.6653 39.7087 58.755 39.98 58.755C40.2513 58.755 40.515 58.6653 40.73 58.4999L48.49 52.6799L56.25 58.4999C56.465 58.6648 56.7291 58.7529 57 58.7499C57.1645 58.7512 57.3277 58.7198 57.4799 58.6574C57.6322 58.5951 57.7705 58.5031 57.8869 58.3867C58.0032 58.2704 58.0952 58.1321 58.1576 57.9798C58.2199 57.8275 58.2513 57.6644 58.25 57.4999V12.6899C58.2474 10.7078 57.4581 8.80779 56.0556 7.40718C54.6531 6.00657 52.7521 5.21988 50.77 5.21988V5.21988ZM21.71 46.7099H12.91C11.6741 46.7099 10.4888 46.2189 9.61488 45.345C8.74096 44.4711 8.25 43.2858 8.25 42.0499V14.4499C8.25 12.665 8.95905 10.9532 10.2212 9.69105C11.4833 8.42893 13.1951 7.71988 14.98 7.71988C16.7649 7.71988 18.4767 8.42893 19.7388 9.69105C21.0009 10.9532 21.71 12.665 21.71 14.4499V46.7099ZM35.77 19.3499C36.575 18.5723 37.6508 18.1384 38.77 18.1399V15.9999C38.77 15.6684 38.9017 15.3504 39.1361 15.116C39.3705 14.8816 39.6885 14.7499 40.02 14.7499C40.3515 14.7499 40.6695 14.8816 40.9039 15.116C41.1383 15.3504 41.27 15.6684 41.27 15.9999V18.1299H43.32C43.6515 18.1299 43.9695 18.2616 44.2039 18.496C44.4383 18.7304 44.57 19.0484 44.57 19.3799C44.57 19.7114 44.4383 20.0293 44.2039 20.2638C43.9695 20.4982 43.6515 20.6299 43.32 20.6299H38.8C38.3157 20.6283 37.8496 20.8147 37.5 21.1499C37.3384 21.3051 37.2099 21.4915 37.1222 21.6977C37.0346 21.9039 36.9896 22.1258 36.99 22.3499C36.9965 22.581 37.0484 22.8086 37.1429 23.0197C37.2374 23.2308 37.3726 23.4211 37.5406 23.58C37.7087 23.7388 37.9065 23.8629 38.1226 23.9452C38.3387 24.0276 38.5688 24.0665 38.8 24.0599H41.16C42.2891 24.0492 43.3764 24.4861 44.1841 25.2751C44.9918 26.0641 45.4542 27.1409 45.47 28.2699C45.4686 28.8302 45.3546 29.3845 45.1347 29.8999C44.9148 30.4152 44.5935 30.8811 44.19 31.2699C43.386 32.0502 42.3104 32.4876 41.19 32.4899V34.6299C41.19 34.9614 41.0583 35.2793 40.8239 35.5138C40.5895 35.7482 40.2715 35.8799 39.94 35.8799C39.6085 35.8799 39.2905 35.7482 39.0561 35.5138C38.8217 35.2793 38.69 34.9614 38.69 34.6299V32.4799H36.69C36.3585 32.4799 36.0405 32.3482 35.8061 32.1138C35.5717 31.8793 35.44 31.5614 35.44 31.2299C35.44 30.8984 35.5717 30.5804 35.8061 30.346C36.0405 30.1116 36.3585 29.9799 36.69 29.9799H41.17C41.6493 29.9805 42.1107 29.7981 42.46 29.4699C42.6244 29.3162 42.7553 29.1304 42.8448 28.924C42.9342 28.7175 42.9803 28.4949 42.98 28.2699C42.9735 28.0387 42.9216 27.8111 42.8271 27.6C42.7326 27.389 42.5974 27.1986 42.4294 27.0398C42.2613 26.881 42.0635 26.7569 41.8474 26.6745C41.6313 26.5922 41.4011 26.5532 41.17 26.5599H38.8C38.2406 26.5665 37.6853 26.4628 37.1659 26.2548C36.6465 26.0468 36.1732 25.7385 35.773 25.3476C35.3728 24.9567 35.0535 24.4907 34.8333 23.9764C34.6132 23.462 34.4965 22.9093 34.49 22.3499C34.4914 21.7896 34.6054 21.2352 34.8253 20.7199C35.0452 20.2045 35.3665 19.7386 35.77 19.3499V19.3499ZM47 45.2499H33C32.6685 45.2499 32.3505 45.1182 32.1161 44.8838C31.8817 44.6493 31.75 44.3314 31.75 43.9999C31.75 43.6684 31.8817 43.3504 32.1161 43.116C32.3505 42.8816 32.6685 42.7499 33 42.7499H47C47.3315 42.7499 47.6495 42.8816 47.8839 43.116C48.1183 43.3504 48.25 43.6684 48.25 43.9999C48.25 44.3314 48.1183 44.6493 47.8839 44.8838C47.6495 45.1182 47.3315 45.2499 47 45.2499V45.2499ZM47 40.5199H33C32.6658 40.5199 32.3453 40.3871 32.109 40.1508C31.8728 39.9145 31.74 39.594 31.74 39.2599C31.74 38.9257 31.8728 38.6052 32.109 38.3689C32.3453 38.1326 32.6658 37.9999 33 37.9999H47C47.3315 37.9999 47.6495 38.1316 47.8839 38.366C48.1183 38.6004 48.25 38.9184 48.25 39.2499C48.25 39.5814 48.1183 39.8993 47.8839 40.1338C47.6495 40.3682 47.3315 40.4999 47 40.4999V40.5199Z"
        fill="black" />
</svg>
