<?xml version="1.0" encoding="UTF-8" standalone="no"?>
<svg id="Layer_1"
    data-name="Layer 1"
    xmlns="http://www.w3.org/2000/svg"
    viewBox="0 0 128 128">
    <defs>
        <style>.cls-1{fill:#000000;}</style>
    </defs>
    <title>n</title>
    <path
        class="cls-1"
        d="M119.80467,23.17194H8.198A6.33835,6.33835,0,0,0,1.86627,29.501V48.48269a5.20126,5.20126,0,0,0,2.41542,4.40854A12.98714,12.98714,0,0,1,10.49237,64,12.99491,12.99491,0,0,1,4.28169,75.11144a5.19319,5.19319,0,0,0-2.41542,4.40586V98.499A6.33835,6.33835,0,0,0,8.198,104.82806H119.80467a6.336,6.336,0,0,0,6.32906-6.32906V29.501A6.336,6.336,0,0,0,119.80467,23.17194ZM42.00037,92.64072a2.01734,2.01734,0,0,1-4.03469,0V88.32629a2.01734,2.01734,0,0,1,4.03469,0Zm0-17.45394a2.01734,2.01734,0,0,1-4.03469,0V70.875a2.01734,2.01734,0,0,1,4.03469,0Zm0-17.45127a2.01734,2.01734,0,0,1-4.03469,0V53.42383a2.01734,2.01734,0,1,1,4.03469,0Zm0-17.45394a2.01734,2.01734,0,0,1-4.03469,0V35.96989a2.01734,2.01734,0,1,1,4.03469,0ZM95.912,73.93357a7.788,7.788,0,0,1-1.5138,2.74467A9.21654,9.21654,0,0,1,91.65,78.84673,13.36565,13.36565,0,0,1,87.49035,80.156v6.15427H81.13494V80.30946A23.50651,23.50651,0,0,1,75.16132,79.174a34.33991,34.33991,0,0,1-3.40619-1.3877l2.16849-5.79965a26.43578,26.43578,0,0,0,4.21089,1.56493,18.575,18.575,0,0,0,5.16885.70583q3.079,0,4.21089-.83194a2.73963,2.73963,0,0,0,1.13535-2.34581,2.8846,2.8846,0,0,0-.45349-1.64,4.49175,4.49175,0,0,0-1.30925-1.23428,13.06079,13.06079,0,0,0-2.16849-1.08421c-.87624-.35462-1.88549-.72966-3.02767-1.13535q-1.66227-.60352-3.25278-1.33663a13.24077,13.24077,0,0,1-2.87425-1.79,7.74041,7.74041,0,0,1-2.85043-6.30435,10.67746,10.67746,0,0,1,.48072-3.20157,8.29346,8.29346,0,0,1,4.10861-4.94047,12.65824,12.65824,0,0,1,3.83236-1.28542V41.67892h6.35541V46.9228a28.74054,28.74054,0,0,1,4.5143.757A20.2342,20.2342,0,0,1,95.00508,48.689l-1.565,6.052a23.32565,23.32565,0,0,0-3.85626-1.21038,20.46041,20.46041,0,0,0-4.61309-.50462,5.82113,5.82113,0,0,0-3.48123.808,2.54076,2.54076,0,0,0-1.06039,2.11736,2.75,2.75,0,0,0,.33073,1.3877A3.04485,3.04485,0,0,0,81.793,58.37225a11.0828,11.0828,0,0,0,1.73883.883q1.03315.42962,2.49581.93428a37.0697,37.0697,0,0,1,4.112,1.76956,15.34325,15.34325,0,0,1,3.2766,2.19581A8.90152,8.90152,0,0,1,95.58474,67.053a9.01888,9.01888,0,0,1,.78072,3.88009A10.19955,10.19955,0,0,1,95.912,73.93357Z" />
</svg>