<?xml version="1.0" encoding="UTF-8" standalone="no"?>
<svg id="Layer_1"
    data-name="Layer 1"
    xmlns="http://www.w3.org/2000/svg"
    viewBox="0 0 512 512">
    <title>Tracking</title>
    <polygon points="340.622 85.898 164.271 164.056 245.333 199.984 421.682 121.824 340.622 85.898" />
    <path d="M137.948,152.39,314.3,74.232,253.977,47.5a21.333,21.333,0,0,0-17.288,0l-167.7,74.327Z" />
    <path d="M256,406.777v35.5l31.714-14.055A106.193,106.193,0,0,1,256,406.777Z" />
    <path d="M256,218.59v35.966a106.634,106.634,0,0,1,181.333,76.11V138.22Z" />
    <path d="M234.667,284.374V218.59L53.333,138.22V348.026a21.332,21.332,0,0,0,12.69,19.5l168.643,74.742V376.96A106.788,106.788,0,0,1,234.667,284.374Z" />
    <path d="M466.208,451.125l-68.181-68.181a85.5,85.5,0,1,0-15.083,15.083l68.181,68.181a10.666,10.666,0,0,0,15.083-15.083Zm-180.8-75.2a64,64,0,1,1,45.255,18.745A63.582,63.582,0,0,1,285.411,375.922Z" />
</svg>